<?xml version="1.0" encoding="utf-8"?>
<!-- Generator: Adobe Illustrator 28.2.0, SVG Export Plug-In . SVG Version: 6.00 Build 0)  -->
<svg version="1.1" id="Layer_1" xmlns="http://www.w3.org/2000/svg" xmlns:xlink="http://www.w3.org/1999/xlink" x="0px" y="0px"
	 viewBox="0 0 776.8 776.8" style="enable-background:new 0 0 776.8 776.8;" xml:space="preserve">
<style type="text/css">
	.st0{fill:#CCCFD1;}
</style>
<path class="st0" d="M388.4,0L388.4,0C173.9,0,0,173.9,0,388.4v0c0,214.5,173.9,388.4,388.4,388.4h0
	c214.5,0,388.4-173.9,388.4-388.4v0C776.8,173.9,602.9,0,388.4,0z M606,503.3h-60.7v-98.5l-98.5,98.5v-94.4l-94.4,94.4l-86-86
	L238.9,446v57.3h-68.1V332.8l67.7-59.3v85.4l80.9-85.4h92L312.2,377l42.2,47.6l151.1-151.1v100.5L606,273.5V503.3z"/>
</svg>
