<?xml version="1.0" encoding="UTF-8"?> <svg xmlns="http://www.w3.org/2000/svg" id="livro_reclamacoes" viewBox="0 0 488.26 192.88"><defs><style> .cls-1 { fill: #b41f24; stroke-width: 0px; } </style></defs><path class="cls-1" d="m426.13,83.86c-2.16,0-4.07.35-5.73,1.05-1.24.52-2.39,1.32-3.43,2.39-1.05,1.08-1.87,2.29-2.47,3.64-.81,1.84-1.21,4.11-1.21,6.82,0,4.23,1.17,7.55,3.5,9.96,2.33,2.41,5.47,3.62,9.43,3.62s7.02-1.21,9.35-3.63c2.33-2.42,3.5-5.78,3.5-10.07s-1.18-7.7-3.53-10.13-5.48-3.64-9.4-3.64Zm5.32,20.58c-1.37,1.54-3.13,2.31-5.27,2.31s-3.9-.78-5.29-2.33c-1.39-1.55-2.08-3.83-2.08-6.84s.68-5.34,2.03-6.86c1.35-1.52,3.14-2.27,5.35-2.27s3.99.75,5.32,2.25c1.34,1.5,2,3.77,2,6.82s-.69,5.39-2.06,6.93Zm-341.72-10.34c.36-.53.54-1.2.54-1.99,0-.89-.24-1.62-.72-2.17s-1.15-.9-2.02-1.04c-.44-.06-1.74-.09-3.92-.09h-4.19v6.74h3.97c2.57,0,4.18-.11,4.82-.33.64-.22,1.14-.59,1.5-1.12Zm358.88,5.08h13.34v-4.48h-13.34v-5.89h14.34v-4.5h-19.71v26.58h20.21v-4.48h-14.85v-7.23Zm-162.77-14.65h-5.37v26.36h18.71v-4.48h-13.34v-21.88Zm-173.16,3.92c-2.21,0-3.99.76-5.35,2.27-1.35,1.52-2.03,3.8-2.03,6.86s.69,5.29,2.08,6.84c1.39,1.55,3.15,2.33,5.29,2.33s3.89-.77,5.27-2.31,2.06-3.85,2.06-6.93-.67-5.32-2-6.82c-1.34-1.5-3.11-2.25-5.32-2.25Zm309.12-5.6c.01-.58.13-.99.34-1.22.22-.24.52-.35.91-.35.51,0,1.32.21,2.43.63,1.11.42,1.81.67,2.08.74.4.08.8.13,1.21.13.94,0,1.71-.35,2.31-1.05.6-.7.9-1.87.92-3.5h-2.36c-.07.57-.24.97-.5,1.21-.26.24-.58.36-.97.36-.54,0-1.3-.21-2.26-.64-.96-.43-1.62-.69-1.99-.78-.36-.09-.75-.14-1.18-.14-.97,0-1.76.34-2.38,1.02s-.92,1.66-.92,2.93c0,.16,0,.38.02.65h2.32Zm-79.2,19.6l-4.82-18.13h-8.03v26.58h4.98v-20.92l5.26,20.92h5.17l5.28-20.92v20.92h4.99v-26.58h-8.05l-4.77,18.13Zm144.6-3.53c-.71-1.14-1.69-2.04-2.94-2.7-1.25-.66-3.18-1.3-5.79-1.91-2.61-.62-4.25-1.21-4.93-1.78-.53-.45-.8-.98-.8-1.61,0-.69.28-1.24.85-1.65.88-.64,2.1-.96,3.66-.96s2.64.3,3.4.9c.75.6,1.25,1.58,1.48,2.95l5.37-.24c-.08-2.44-.97-4.39-2.66-5.86-1.69-1.46-4.2-2.19-7.53-2.19-2.04,0-3.79.31-5.23.92-1.44.62-2.55,1.51-3.32,2.69-.77,1.18-1.15,2.44-1.15,3.8,0,2.1.82,3.89,2.45,5.35,1.16,1.04,3.18,1.92,6.05,2.63,2.24.56,3.67.94,4.3,1.16.92.33,1.56.71,1.93,1.15.37.44.55.98.55,1.6,0,.98-.44,1.83-1.31,2.57s-2.18,1.1-3.91,1.1c-1.63,0-2.93-.41-3.89-1.23-.96-.82-1.6-2.11-1.91-3.86l-5.22.51c.35,2.97,1.43,5.24,3.23,6.79,1.8,1.55,4.38,2.33,7.74,2.33,2.31,0,4.24-.32,5.78-.97,1.55-.65,2.74-1.63,3.59-2.96.85-1.33,1.27-2.75,1.27-4.28,0-1.68-.35-3.09-1.06-4.23Zm-253.08.26h13.34v-4.48h-13.34v-5.89h14.34v-4.5h-19.71v26.58h20.21v-4.48h-14.85v-7.23Zm-79.42-8.86c-.65-.62-1.48-1.03-2.48-1.25-.75-.17-2.22-.25-4.4-.25h-2.41v17.6h4.01c1.5,0,2.58-.08,3.24-.25.87-.22,1.59-.59,2.17-1.11.57-.52,1.04-1.38,1.4-2.57.36-1.19.54-2.81.54-4.87s-.18-3.63-.54-4.73c-.36-1.1-.87-1.96-1.52-2.57Zm113.61,15.08c-1.03.91-2.25,1.36-3.68,1.36-1.93,0-3.5-.71-4.71-2.14-1.21-1.43-1.81-3.82-1.81-7.18,0-3.17.61-5.46,1.84-6.87,1.23-1.41,2.83-2.12,4.79-2.12,1.43,0,2.64.4,3.63,1.2,1,.8,1.65,1.89,1.97,3.26l5.31-1.27c-.6-2.13-1.51-3.76-2.72-4.89-2.03-1.92-4.67-2.88-7.92-2.88-3.72,0-6.73,1.22-9.01,3.67s-3.43,5.88-3.43,10.31c0,4.18,1.14,7.48,3.41,9.89,2.27,2.41,5.17,3.62,8.7,3.62,2.85,0,5.21-.7,7.06-2.11,1.86-1.41,3.18-3.56,3.98-6.46l-5.2-1.65c-.45,1.95-1.18,3.37-2.21,4.28Zm42.35-21.08l-10.35,26.58h5.69l2.19-6.04h10.62l2.32,6.04h5.84l-10.64-26.58h-5.67Zm-.82,16.06l3.59-9.86,3.66,9.86h-7.25Zm-90.29,1.02c-.76-.81-1.71-1.55-2.87-2.23,2.33-.34,4.08-1.16,5.26-2.46,1.17-1.3,1.76-2.95,1.76-4.94,0-1.57-.39-2.97-1.16-4.19s-1.8-2.07-3.09-2.55-3.35-.72-6.19-.72h-11.29v26.58h5.37v-11.09h1.09c1.23,0,2.13.1,2.7.3.57.2,1.11.57,1.61,1.11.51.54,1.45,1.84,2.83,3.91l3.88,5.78h6.42l-3.24-5.18c-1.28-2.07-2.3-3.5-3.05-4.31Zm-8.26-5.84h-3.97v-6.74h4.19c2.18,0,3.48.03,3.92.09.87.15,1.54.49,2.02,1.04s.72,1.27.72,2.17c0,.8-.18,1.46-.54,1.99-.36.53-.86.91-1.5,1.12-.64.22-2.25.33-4.82.33Zm191.05,9.84c-1.03.91-2.25,1.36-3.68,1.36-1.93,0-3.5-.71-4.71-2.14-1.21-1.43-1.81-3.82-1.81-7.18,0-3.17.61-5.46,1.84-6.87,1.23-1.41,2.83-2.12,4.79-2.12,1.43,0,2.64.4,3.63,1.2,1,.8,1.65,1.89,1.97,3.26l5.31-1.27c-.6-2.13-1.51-3.76-2.72-4.89-2.03-1.92-4.67-2.88-7.92-2.88-3.72,0-6.73,1.22-9.01,3.67s-3.43,5.88-3.43,10.31c0,4.18,1.14,7.48,3.41,9.89,1.89,2,4.22,3.16,6.97,3.5-.52.08-1.02.2-1.5.37l-.47,1.79c.81-.24,1.6-.36,2.38-.36s1.37.15,1.74.45c.37.3.56.66.56,1.07,0,.46-.2.83-.6,1.12-.52.39-1.32.58-2.39.58s-2.18-.07-3.43-.2v2.14c.8.19,1.98.29,3.54.29,2.19,0,3.87-.45,5.04-1.36.87-.67,1.31-1.53,1.31-2.59,0-.96-.39-1.76-1.18-2.43-.48-.41-1.11-.67-1.86-.83,2.23-.2,4.12-.87,5.66-2.04,1.86-1.41,3.18-3.56,3.98-6.46l-5.2-1.65c-.45,1.95-1.18,3.37-2.21,4.28Zm-33.95-21.08l-10.35,26.58h5.69l2.19-6.04h10.62l2.32,6.04h5.84l-10.64-26.58h-5.67Zm-.82,16.06l3.59-9.86,3.66,9.86h-7.25ZM96.44,0C43.18,0,0,43.18,0,96.44s43.18,96.44,96.44,96.44,96.44-43.18,96.44-96.44S149.7,0,96.44,0Zm-61.29,110.89h-18.71v-26.36h5.37v21.88h13.34v4.48Zm9.03,0h-5.37v-26.58h5.37v26.58Zm17.62,0h-5.73l-9.5-26.58h5.82l6.73,19.67,6.51-19.67h5.69l-9.52,26.58Zm29.75,0l-3.88-5.78c-1.38-2.07-2.32-3.37-2.83-3.91-.51-.54-1.05-.91-1.61-1.11-.57-.2-1.47-.3-2.7-.3h-1.09v11.09h-5.37v-26.58h11.29c2.84,0,4.9.24,6.19.72s2.32,1.33,3.09,2.55,1.16,2.62,1.16,4.19c0,1.99-.59,3.64-1.76,4.94-1.17,1.3-2.92,2.12-5.26,2.46,1.16.68,2.12,1.42,2.87,2.23.75.81,1.77,2.25,3.05,4.31l3.24,5.18h-6.42Zm30.51-3.18c-2.33,2.42-5.45,3.63-9.35,3.63s-7.09-1.21-9.43-3.62c-2.33-2.41-3.5-5.73-3.5-9.96,0-2.71.4-4.98,1.21-6.82.6-1.35,1.43-2.57,2.47-3.64s2.19-1.87,3.44-2.39c1.66-.7,3.56-1.05,5.73-1.05,3.92,0,7.05,1.21,9.4,3.64,2.35,2.43,3.53,5.81,3.53,10.13s-1.17,7.65-3.5,10.07Zm39.45-4.2c-.67,1.93-1.61,3.5-2.85,4.7-.93.91-2.19,1.61-3.77,2.12-1.18.37-2.77.56-4.75.56h-10.1v-26.58h9.81c2.21,0,3.9.17,5.06.51,1.56.46,2.89,1.27,4.01,2.45,1.11,1.17,1.96,2.61,2.54,4.31.58,1.7.87,3.79.87,6.28,0,2.19-.27,4.07-.82,5.66Zm5.37-19.2h19.71v4.5h-14.34v5.89h13.34v4.48h-13.34v7.23h14.85v4.48h-20.21v-26.58Z"></path></svg> 